<?xml version="1.0" encoding="UTF-8"?>
<svg data-bbox="150.9 685.326 1698.2 642.362" viewBox="0 0 2048 2048" height="2730.667" width="2730.667" xmlns="http://www.w3.org/2000/svg" data-type="shape">
    <g>
        <path d="M1352.5 686.1c-12.4 2.5-24.1 11.4-28.8 21.7-3 6.7-3 20.8-.1 27.3 5.8 12.5 14.4 16.9 43.9 22.3 11.8 2.2 15.6 4.2 17.2 9 2.1 6.2-1.3 12-8.6 14.5-4.8 1.6-16.6 1.4-23.4-.4-5.2-1.4-15.8-6.1-21.5-9.6-2-1.2-2.4-1.2-3.2.1-.5.8-3.1 5.1-5.9 9.5l-5 8 3.1 2.7c7.6 6.6 25.5 12.5 40.8 13.4 16.8 1.1 30.9-3.5 39.6-12.8 7.1-7.6 8.9-12.5 8.8-23.8 0-10.9-1.3-14.6-7-21-6.4-7.1-15.4-10.6-35.2-13.9-17.3-2.9-21.2-5.2-21.2-12.6 0-6.4 3.3-9.8 11.6-12.1 9.1-2.4 17.7-1 29.4 4.9 4.7 2.3 8.8 4.3 9.2 4.5.3.2 3.2-4 6.3-9.4 4.5-7.6 5.4-9.8 4.4-10.6-5.6-3.7-14.5-8-20.4-9.8-8.1-2.5-26.1-3.5-34-1.9z"/>
        <path d="m1116.8 687.7-11.8.4V710h31l.1 24.2c.2 33.2.1 34.6-2.4 39.7-3.4 6.9-6.5 8.6-15 8.5-5.2 0-8.7-.7-12.5-2.4-2.9-1.2-5.5-2-5.8-1.8-1 1-7.4 17.3-7.4 18.8 0 3.3 17 8 28.9 8 20.6 0 33.8-11.7 37.6-33.6 1.6-9.3 2.1-47.5.8-71.7l-.6-12.7-15.6.2c-8.6.1-20.9.4-27.3.5z"/>
        <path d="M1183.2 687.8c-1 .7-1.2 12.9-1 57.8l.3 56.9h24l.5-33.7.5-33.8 15.5 25.3c20.5 33.3 17.1 33.2 36.7.8 8.2-13.5 15.4-24.6 16.1-24.9.9-.3 1.2 7 1.2 33.2v33.7l11.8-.3 11.7-.3v-115l-11.1-.3c-12.4-.3-11.5-.7-16.8 8-17.3 28.4-29.1 47.5-30.1 48.6-1.2 1.4-1.4 1.2-28.2-42.6-3.9-6.4-7.7-12.3-8.3-13-1.2-1.4-20.6-1.7-22.8-.4z"/>
        <path d="M432.9 711.9c-9.3 2.5-18.6 7.7-24.4 13.7-9.1 9.4-19 28.5-23.2 44.9-2.9 10.9-3.6 16.5-2.2 16.5.6 0 4.7-.9 9.1-2.1 4.4-1.1 8.6-1.8 9.3-1.5 2.1.8 21.5 30.4 21 31.8-.3.8 1.5 4.5 4 8.3 2.4 3.9 4.5 7.5 4.5 8.1 0 .6-1.2 2.1-2.6 3.5-3.9 3.7-9.2 13.8-11 21.3-1.6 6.3-2 6.8-7.7 11.1-6.1 4.5-6.1 4.5-14.4 4.5h-8.4l-4.7 4.5c-3.5 3.4-5.4 4.5-7.8 4.5-7.7 0-8.9.7-10.7 7-1.5 5-2.5 6.4-7.2 10-8.4 6.4-24.4 24-29.1 31.8-.1.2-4.2-.1-9-.6-9.8-1.1-18.1-.3-19.5 1.9-.5.8-.7 2.5-.4 3.8.7 2.6 6.1 11.4 9.1 14.6 4.9 5.3 4.9 4.8-.9 12.5-5.8 7.7-13.3 21.2-16.6 30.1-1.2 3.1-9.2 16.6-17.7 30-8.6 13.4-18.1 28.3-21.1 33.2-3 4.8-6 9-6.7 9.4-3.3 2.2-11.7 4.3-16.7 4.3-23.7 0-40.7 13.4-45.4 35.7-2.1 9.7-1.9 15 .9 20.9 3.9 8.3 13.2 14 25.1 15.1l6.5.6 2.9 5.2c4.3 7.5 14.3 19.6 21.4 25.8 3.9 3.4 13.9 9.7 26.7 16.7 34.3 18.9 38.5 21.2 39.8 22.8 2.2 2.8 1.4 4.2-2.3 4.2-6.8 0-19.4-5.9-45.9-21.4-13.6-8-20.8-11.1-28.9-12.7-9.2-1.7-9 1.1.5 8.8 4 3.3 7.5 6.7 7.6 7.8.4 1.7-.1 1.8-6.4 1.2-3.8-.4-12.2-2.2-18.7-4.1-20.7-6.1-24.9-5.9-16 1 6.7 5.1 26.1 10.9 49.1 14.4 8.4 1.4 12.3 3.8 10.6 6.7-1.7 2.8-7.4 2.7-15.3-.1-3.8-1.4-10.9-3-15.8-3.7-4.8-.6-12.4-2.3-16.8-3.8-7.7-2.5-8.7-2.6-27.5-2.3-24.2.4-29.5 1.8-24.2 6.4 4 3.6 8.2 4.7 20.7 5.6 9.4.7 13.1 1.4 14.3 2.6 1.3 1.3 1.4 1.8.4 2.8-1 1-6.1 1.2-20.8 1l-19.5-.4.7 2.9c1.9 7.9.4 7.3 19.6 7.3 11.9 0 24.4-.8 39.8-2.5 26.6-3 47-4.2 47-2.8 0 1-12.3 4.6-28.5 8.4-12.2 2.8-19.5 5.1-19.5 6.1 0 1.3 8.3 1 37-1.3 40.4-3.3 84-3.1 119 .5 30.8 3.1 41 4.5 61.5 8.7 14.3 3 15.6 3.1 28 2.3 21.5-1.4 30.1-1.1 38 1.4 6.4 2.1 8.6 2.3 24.6 2 12.1-.2 18 .1 19 .8 2 1.7 39.4 11.5 45.9 12.1 7.2.6 5.2-.8-5.6-4.2-9-2.7-17.7-8.2-15.3-9.5 1.7-1 11.3.7 26.9 4.9 6.3 1.6 18.7 4.6 27.5 6.5 28.5 6.3 34.7 5.9 19.5-1.2-4.3-2-7.9-4-8-4.5 0-1.2 14-.7 22.5.8 49 9.1 54.6 9.5 68.2 6 11.8-3.1 20.8-1.7 42.7 6.4 12.2 4.6 14.7 5.1 9.8 1.9-4.8-3-2.8-4.3 4.4-2.8 6.3 1.3 21.3 5.1 41.4 10.6 6.9 1.9 12.9 3.4 13.5 3.4 2.7 0-3.3-3.5-14-8-14.5-6.2-19.7-9-19.2-10.4.2-.6 1.9-1 3.8-1 46.2 1.6 49.2 1.5 57.9-.5 12.7-3 28.5-4.3 47.8-3.9 9.4.1 17.2 0 17.2-.3 0-1.8-10.4-4.2-28.2-6.4-2.7-.4-4.8-.9-4.8-1.3 0-1.3 10.7-6.5 11.9-5.8 1.5 1 8.2-3 15.1-9 8-6.8 14.5-9.5 24.6-10.2 5.5-.3 8.4-.1 8.4.6 0 1.3-5.4 5.9-8 6.7-1.2.4-1.9 1.2-1.7 1.8.4 1.4 8.5 1.5 16.2.3 3.6-.5 5.5-.4 6.8.6 1.6 1.2 1.4 1.5-2.5 4.2l-4.3 2.8 5.2-.6c2.8-.4 10-2.2 16-4.1 18.9-6 22.5-6.6 45.8-7.4 17.8-.7 22.9-1.2 27-2.8 2.9-1 5-2.5 5-3.3 0-.8-1.8-2.4-4-3.5-5.3-2.6-18.6-2.5-35 .5-27.3 4.8-50.5 7.2-50.5 5.2 0-1.7 6.9-5.9 11.7-7.1 2.2-.6 10.6-2 18.5-3.1 21.7-3 26.4-5.2 14.1-6.6-8.9-.9-31.6.2-42.8 2.1-14 2.3-13.9 2.4-13.2-3.1.6-5.7 3.7-9.1 12.6-13.8 10.9-5.7 23.3-9.5 39.7-12.1 20.5-3.3 26.1-5.7 21.2-8.9-3.9-2.5-9.2-2.9-23.5-1.6-14.3 1.3-19.5.7-23.8-2.4-1.9-1.4-1.9-1.5-.2-3.4 2.6-2.9 5.9-4 17-5.6 8.6-1.2 15.8-3.9 14.4-5.3-.3-.2-3.8-.9-7.9-1.4-8.2-1-15.8-2.8-15.8-3.8 0-1.1 24.1-9 37.9-12.4 3-.7 5.6-1.8 5.8-2.4 1-2.9-20.2-2.8-30.2.1-23.6 7-22.4 6.8-37 6.8-8.4 0-15.2-.4-16.9-1.1l-3-1.2 3-1.9c4.5-3.1 14.1-5.9 23.4-7 11.8-1.4 24.1-4.1 23.4-5.1-.3-.5-8.1-.9-17.4-.9-10.4 0-17.1-.4-17.5-1-1-1.6 5.8-3.9 16.8-5.7 5.6-.9 10.7-2 11.2-2.5.6-.6-5.2-.8-14.9-.7-10.6.2-16.1-.1-16.3-.8-.5-1.4 5.9-4.2 19.2-8.6 17.8-5.8 24-7.4 43.5-11.2 23.2-4.5 25.9-6.4 14.1-9.9-10.8-3.2-29.2-1.8-48.2 3.5-11.1 3.1-22.8 3.7-23.6 1.2-.2-.6 1.2-2.9 3.1-5.1 6.4-7 4.4-8.5-5.5-4.1-6 2.6-8.2 3-12.6 2.7-6.5-.6-8.7-2.2-5.8-4.4 1.1-.9 2.7-1.9 3.5-2.4 3.1-1.8-.2-2.2-5.7-.7-9.5 2.6-22.7 3.9-27.4 2.7-2.2-.6-3.7-1.5-3.4-2.1 2.3-3.6 26-11.8 49.3-17 16.3-3.6 11.8-6.1-11.3-6.1-19.3-.1-49.8 4.4-76.6 11.2l-8.3 2.1-37.5-1.6-37.6-1.6-13.5-13.8c-7.4-7.5-16.2-17-19.4-21l-5.9-7.2 3.5-6.7c2.2-3.9 4.3-10 5.3-14.7.9-4.4 1.8-8.2 2.1-8.5.3-.3 5.4-3 11.2-6 9.9-5.1 10.7-5.7 11-8.7.2-2.2-.3-3.7-1.9-5.2-2.1-1.9-3.5-2.1-15.3-2.1l-13.1-.1-3.5-5.1c-1.9-2.9-5.5-6.6-7.8-8.3-4.4-3-4.4-3-16.5-2.7-6.7.1-18.9.7-27.2 1.2-8.2.6-20.1 1.3-26.4 1.7l-11.3.6 1.5-2.9c6.3-12.3 3.8-35.7-4.8-45.3-1.8-2-4.3-5.7-5.5-8.3-1.3-2.8-4.3-6.5-7-8.8-3.4-2.8-5.3-5.4-6.4-8.7-1.9-5.7-6-11.1-9.4-12.6-1.5-.7-6.7-5.3-11.6-10.2-10-10.2-14.6-18.1-14.6-25.4v-4.3l4.5.6c4.6.7 7.2-.1 11-3.4 1.1-1 4.9-2.7 8.5-3.9 8-2.6 15.6-7.6 20.3-13.3 3.9-4.7 9.7-16.2 9.7-19.1 0-5.2-10.1-10.4-25.7-13.2-4.8-.9-11.5-2.7-14.8-4-9.4-3.7-21-5.1-29.4-3.6-6 1.1-7.3 1-9.3-.3-5.7-3.7-14.1-5.7-23.3-5.6-4.9.1-10.6.2-12.5.2-1.9 0-6.6-1.1-10.5-2.6-5.6-2-8.8-2.6-16.2-2.6h-9.2l-.6-5.8c-1.5-13.6-7.1-25.1-16.9-34.7-8.3-8.3-14.5-11.8-25.2-14.5-9.6-2.4-18.7-2.4-27.5-.1zm24.5 4.5c4.3.8 7.4 2 8.2 3.1 2.1 2.8.2 18.8-3.3 27.6-1.3 3.5-1.8 3.7-6.9 4.4-3.1.4-5.8.4-6.1.2-.2-.3.5-4.1 1.7-8.5s2-8.7 1.8-9.6c-.1-.9-3.3 3.8-7.1 10.3l-6.7 11.9-8 4.2c-4.5 2.3-8.4 4-8.9 3.8-.4-.2 1.2-5.7 3.6-12.2 2.4-6.6 4.2-12.4 4-12.9-.1-.5-1.5.1-3 1.4-1.7 1.6-4.4 7.1-8 16.4l-5.5 14-11.5 5.1c-6.4 2.9-11.8 5-12 4.7-.7-.6 1.9-9.9 4.8-17.7 5.3-14.1 15.3-30.7 21.7-36.1 4.8-4.1 15.2-8.6 23.3-10 9-1.7 9.7-1.7 17.9-.1zm26.8 14.8 6 6.3-.5 5.2c-.8 7.2-5.9 16.6-13 23.6-5.3 5.3-5.8 6.1-6.1 10.7-.1 2.8-.5 5.1-.7 5.3-.2.2-5.3 4.3-11.4 9.2l-10.9 8.8-6.1-2.1c-3.3-1.1-6.8-2.4-7.7-2.7-1.4-.5-1.7 0-2 3.2-.3 3.7-.4 3.8-5.3 4.5l-5 .8-4.3-4.8c-2.3-2.6-5.8-7-7.7-9.7-2.9-4.2-3.3-5.5-2.7-8 .7-2.6 2.8-4.1 18.3-12.2 15.2-8 18.2-9.3 23.9-9.8 14.3-1.3 13.4-.8 17.3-8.8 3.7-7.5 8.7-21.4 8.7-24.1 0-3.2 3.3-1.5 9.2 4.6zm14.8 29.7c.7 4 .9 9.6.5 14.8-.7 8-.9 8.6-5.4 14.1C482.8 804 461.8 825 459 825c-.6 0-1-.9-1-1.9 0-1.4-2.2-3.1-7.6-6-4.1-2.3-8.1-4.1-8.7-4.1-.6 0-3.1.7-5.4 1.6-3.8 1.5-4.3 2.1-4.3 4.8l-.1 3.1-2.4-2.8c-2.5-2.8-4.2-7.3-3.2-8.3 1.6-1.7 13.9-3.5 19.8-3l6.6.6 11.4-10.9c11.2-10.8 11.5-10.9 17.2-11.6 5-.6 6.2-1.2 9.7-4.9 2.2-2.2 4-4.7 4-5.4 0-1.8-7.1-1.5-9.9.4-1.9 1.4-2.5 1.4-3.2.3-1.7-2.8-.8-5.6 3.2-9.4 2.2-2.2 5.7-6.6 7.7-9.8 4-6.6 4.4-6.4 6.2 3.2zm16.5 11c3.3.5 8 1.4 10.4 2.1l4.4 1.1-4.9 3.2c-7.1 4.7-10.9 10.2-12.4 18.2s-.9 14.6 2.1 21.5c2.2 5.1 6.8 10 9.5 10 .8 0 1.4.4 1.4.9 0 1.7-11.2 3.5-19.9 3.3-4.6-.1-8.7-.4-9-.7-.2-.3.5-4.7 1.7-9.8 2.9-12.2 4-20.6 4.8-35.7.3-6.9.7-13.1 1-13.8.4-1.4 2.7-1.5 10.9-.3zm44 7.5c3.3 1.5 6.7 3.4 7.6 4.2 1.3 1.2 2.5 1.3 6 .5 13.5-3 26.9-2.2 41.9 2.4 4.1 1.3 9.8 2.5 12.5 2.8 6.5.7 10.5 2.3 10.5 4.1 0 .8-2.6 3-5.7 5-9.3 5.6-15.3 13.1-15.3 19.1 0 1.4-.2 2.5-.5 2.5-.8 0-9.4-8.9-10.5-10.9-1.9-3.7-1.1-7.2 2.5-10.8 2.8-2.8 3-3.3 1.2-2.7-3.6 1.1-7.3 3.2-10.8 6.1-2.9 2.5-4.3 2.8-11.3 3.2-8.4.4-21.2-1.4-22.2-3.1-.9-1.4 2.2-4.4 8-7.8l5.1-3-4 .1c-2.2 0-6.2.8-9 1.8-2.7 1-7.6 2.8-10.9 4-12.1 4.3-30.1 5-34.7 1.2-2-1.6-2.1-2.1-1-5.3 1.3-4.1 5.1-9.4 8.1-11.5 8.4-5.9 22.1-6.7 32.5-1.9zm47.9 37.7c1.9 2.3 3.8 5.5 4.2 7.2.5 2.6.2 3.5-2.5 5.9-1.7 1.5-4 2.8-5.1 2.8-1.7 0-2-.6-1.8-4.1.2-5.2-2.4-7.9-8.4-8.6-3.3-.4-5.2 0-7.8 1.6-1.9 1.1-4.6 2.1-5.8 2.1-1.3 0-3.5.9-4.9 2-2.8 2.2-7.9 2.7-8.5.8-.3-.8-1.3-.5-3.3 1-2.7 2.2-7.5 3-7.5 1.3s8.2-8.3 12.8-10.3c8.2-3.5 18.4-5.7 26.9-5.7l8.1-.1 3.6 4.1zm-51.6 5.6c-.2 1.4-2.4 2.2-9.3 3.5-5 1-10.1 1.7-11.4 1.8-2.5 0-2.4-.1.9-3.5 3.3-3.5 3.5-3.5 11.8-3.5 7.4 0 8.3.2 8 1.7zm40.7 11.8c0 5.5-.4 7.9-1.3 8.3-2.6.9-4.4-2.4-4.6-8.3-.1-4.6.3-5.9 1.9-7.1 3.3-2.4 4-1.1 4 7.1zm-9.3 3.1c.4 6.6.1 7.4-2.2 7.4-2.2 0-3-1.9-3-7.4 0-8.4 4.6-8.4 5.2 0zm-9.2 2.5c.3 2.5 1.3 5.8 2.3 7.2l1.7 2.7h-3.4c-2.9 0-3.6-.5-5-3.4-1.6-3.5-2.2-9.7-.9-11 .4-.4 1.6-.6 2.8-.4 1.6.2 2.1 1.2 2.5 4.9zm-89-2.4c0 .3-.6 1.4-1.3 2.2-1.5 1.7-15.8 22.7-17.2 25.1-1.6 2.8 4.7-3.5 15.8-15.8 8.1-9 11.6-12.2 13-12 1.1.2 2.2.8 2.4 1.4.4 1.1-28.3 35.7-32 38.6-1.2 1-4.8 2.1-7.9 2.4l-5.7.7-5.3-5.2c-5.1-4.8-5.6-5.1-10.8-5.1-3 0-6-.4-6.6-.8-.6-.4-1.4-3-1.8-5.7-.6-4.9-.5-5.2 3.1-8.7 3.2-3 10.3-6.6 10.3-5.3 0 .3-1.3 3.8-3 8-1.6 4.2-3 8.2-3 9 0 2.1 5.6 1.9 7.8-.3 1-1 3.6-5.3 5.7-9.5 3.5-6.8 4.5-7.9 8.5-9.6 5.4-2.3 10-3.6 10-2.7 0 .4-2.1 5-4.6 10.4-5.9 12.4-7.5 16.2-7 16.2.2 0 5.6-7.7 12.1-17 10.6-15.5 11.9-17 14.6-17 1.6 0 2.9.3 2.9.7zm-52.1 4.8 2 3.5-6.3 4.5c-3.5 2.5-6.7 4.5-7.1 4.5-.4 0-.5-1.6-.2-3.5.7-4 6.2-12.5 8.1-12.5.8 0 2.3 1.6 3.5 3.5zm132.5 2.9c2 4 1.4 8.5-1.1 9.3-2.5.9-6.3-4.4-6.3-8.5 0-2.1.3-4.2.7-4.6 1.7-1.7 4.9.1 6.7 3.8zm-11.4-.6c0 1.5.4 4.2.9 5.9 1.1 3.7.1 4.9-2.7 3.4-3-1.6-4.7-6.7-3.4-9.6 1.6-3.6 5.2-3.4 5.2.3zm38 8.5c0 4 2.2 7.3 5.4 8.1 1.4.3 2.8 1.6 3.1 2.7.4 1.2 2.4 4 4.5 6.3 4.4 4.8 7 9.6 7 12.9 0 2.3-4.8 10.9-6.9 12.2-.6.3-3.8 4.6-7 9.4-6.7 10-12.8 15.8-24.8 23.7-8.1 5.4-19.5 10.3-24 10.4-3.4 0-2.8-1.7 1-2.9 6.3-2.1 22.2-13.3 29.7-21 7.8-7.9 15.9-19 18.5-25.3 2.8-7-.3-4.8-7.8 5.4-7.8 10.7-19.5 23-25.9 27.3-9.6 6.5-23.4 12.3-25.1 10.6-1-1 .7-2 12.4-7.7 3.6-1.7 6.9-3.9 7.3-4.9.8-2.3.7-18.8-.2-20-.4-.6-5.3-3.7-10.9-6.8l-10.1-5.7h-37.3l-1.4-3.2c-.7-1.8-1.1-3.6-.9-4 .2-.3 6.8-3.7 14.7-7.6 9.6-4.6 16-7.1 19.7-7.6 5.8-.7 21.3-5 24.2-6.6 1-.6 3.7-1 6.2-1 2.6 0 4.8-.6 5.6-1.5.8-1 3-1.5 6.4-1.5h5.1l2.3 5.9c2.5 6.4 7.6 12.2 13.4 15.2 6.3 3.2 6.1 2.2-1-4.9-7-6.9-9.2-11.2-9.2-18.1 0-2.8.3-3.1 3-3.1s3 .3 3 3.3zm-157 21.4c-.1.5-2.6 2.8-5.8 5.3-28 22.2-52.8 43-51.3 43 .6 0 7.5-3.6 15.3-7.9 39-21.5 53-29.1 53.7-29.1.5 0 3.3 1.1 6.3 2.5 6.7 3.1 7.9 3.1 12.8-.1l4-2.6 7.2 4.3c8.2 4.8 5.5 4.6 41.3 3.3l17-.6 7.7 6.5c4.2 3.7 7.9 7 8.2 7.5.3.6-11 7.4-25.2 15.3-14.1 7.8-31.8 17.7-39.2 21.9-7.4 4.2-17.8 10.1-23.2 13.1-9.3 5.2-9.7 5.6-12.8 11.8-1.7 3.5-2.8 6.6-2.5 6.9.3.3 18.3-8.3 40.1-19.1 21.7-10.8 40-19.7 40.6-19.7 1.5 0 8.8 7.1 8.8 8.5-.1.9-11.2 9.6-24.1 18.8-2.7 1.9-7.9 3.8-16.2 5.9-6.7 1.7-12.6 3.5-13.1 3.9-.6.5 2.8.9 7.6.9s8.9.4 9.2.9c.3.5-.9 2-2.7 3.4l-3.2 2.4-12.5-1.8c-17.1-2.5-17.5-2.5-25.3 2.4-53.1 33.1-67.2 42-73.8 46.2-4.3 2.7-9.9 6.3-12.5 7.8-2.5 1.5-4.4 3-4.1 3.3.2.3 8.5-.3 18.3-1.2l17.9-1.6 19.5-10c10.7-5.6 24.9-12.9 31.5-16.3 6.6-3.4 19.4-10 28.5-14.6l16.5-8.3 22.3-19.5 22.4-19.4 2.5 2.5 2.5 2.5-6.7 16.9c-3.7 9.3-6.9 17.4-7.2 18.1-.3.7 3.7 3.9 9.4 7.6 26.3 17.1 30.3 19.6 30.3 18.4 0-.7-2.1-3.9-4.5-7.1-3.1-4-4.5-6.9-4.5-9 0-1.7-.3-5.4-.6-8.2-.6-4.6-1-5.3-4.6-7.5l-4-2.4.7-6c.4-3.3 1-6.5 1.4-7.3.8-1.4 14.2 13.2 22.5 24.3 5.7 7.8 16 26.4 15.1 27.3-.4.4-8.2.5-17.3.4l-16.7-.4-19-11.5c-10.4-6.4-19.3-11.8-19.7-12-.4-.2-21.7 8-47.3 18.2-25.6 10.2-48.6 18.8-51.1 19.2-5.4.7-4.3 1.7 3.7 3.1 6.2 1.2 3.3 2.1 43.9-14.6 8-3.2 21.8-8.9 30.7-12.6l16.2-6.6 6.6 3.2c3.6 1.8 6.5 3.5 6.5 3.9 0 .3-7.8 2.9-17.2 5.7-9.5 2.8-18.9 5.6-20.8 6.1-4.5 1.4 9 .7 30.9-1.5 10.9-1.1 15.7-1.2 16.4-.5.6.6.7 1.1.2 1.1-8.4.1-41.5 5.8-41.5 7.2 0 .5 1.2.7 2.8.4 11.8-2.5 60.5-3.4 84.3-1.5l13.4 1 16 8.3c8.8 4.6 18.9 9.9 22.5 11.8 3.6 1.9 12.8 6.8 20.5 10.9l14 7.4-5 .3c-2.7.2-20.1-.1-38.5-.7s-53.7-1.6-78.4-2.1c-24.8-.6-45.2-1.2-45.4-1.4-.2-.3 3.7-5.5 8.8-11.6 5-6.2 8.9-11.4 8.8-11.6-.2-.2-8.2 3.7-17.8 8.6-9.6 4.9-17.8 8.9-18.2 9-.5 0-.8-2.9-.8-6.5 0-6.4-.1-6.5-3.7-8.9-5.1-3.4-11.9-5.7-16.8-5.8-6.2-.1-28.4 9.5-42 18.2-5.5 3.5-6.7 3.9-15.5 4.5-56.3 3.8-125.5 13.1-174.4 23.5-7.7 1.6-14.1 2.8-14.4 2.6-.2-.2.1-1.3.7-2.4 1.8-3.4 8.9-8.3 15.9-11.2l6.6-2.7 17.8-25.9c9.8-14.2 18.5-26.5 19.3-27.3 1.2-1.2 2.1-1.2 5.3-.3 2.2.7 4.3 1.2 4.8 1.2s.9-5.5.9-12.2c0-11.2.2-12.8 2.6-17.8 1.5-3 3.3-6.4 4.1-7.4 1.4-1.8 1.6-1.6 3.7 2.8 2.6 5.3 6.8 8.9 13 11.1 6.2 2.1 10 1.9 24.1-1.5 20.5-5 40.6-12.2 58-21 8.9-4.5 10.7-5 16.5-5 7.2 0 6.4.5 38.5-21 6.3-4.2 24.4-14.3 40.3-22.4 28.7-14.8 28.7-14.8 30.7-19.3 1.1-2.5 1.8-4.8 1.6-5.2-.3-.4-5.6-.2-11.8.5l-11.3 1.2-17.1 9.1-17.1 9.1-5.2-1-5.3-1-11.1 6.2c-6.2 3.3-21.1 11.6-33.2 18.3-22.1 12.2-35.4 18.5-47.5 22.4-15.4 5-32.1 6.4-41.7 3.6-5.3-1.6-11.6-5.3-11.7-7-.1-.6 2.6-2.4 5.9-4 5.9-3 5.9-3 8.7-11 5.4-15.2 14.1-28.7 26.4-41 7.3-7.2 13.4-11.6 13.4-9.7 0 .5-3 5.4-6.6 10.8-12.1 18.1-10.4 16.9 6.1-4.1 15.4-19.8 17.2-21.1 28.1-21.4 2.7 0 5.9-.8 7-1.6 1.5-1.1 5.4-1.4 17.7-1.5 8.6 0 15.7.3 15.7.7zm196.6 30.4c3.3 1.6 6.6 3.7 7.4 4.5 1.2 1.2.8 1.4-3.2 1.4-2.6 0-4.9.4-5.3.9-.3.5 1.3 2.2 3.5 3.8 2.2 1.5 4 3.5 4 4.3 0 .9-1.6 6.2-3.5 11.9-4.7 13.7-4.4 15.4 1 5.2 5.4-10.3 7.8-13 10.3-11.5 3.4 2 5.7 8.5 6 17.1.4 7.2.1 8.8-2.4 14.3-1.5 3.3-3.6 6.6-4.6 7.1-3.3 1.8-7.7-.1-14.5-6.1-8.8-7.8-11.3-8.5-6.7-1.7 4.7 6.8 4.3 9.5-1.6 12.4-2.5 1.2-7.9 2.7-12 3.4-7.9 1.2-16.6 4.5-18.8 7.2-1.9 2.2-.7 5.4 3.8 10.3 5.2 5.6 11.6 16.8 13.5 23.7 2.6 9.1 1.2 9-3.5-.3-5.9-11.8-13.7-23.3-21.4-31.7-3.6-3.9-6.6-7.8-6.6-8.6 0-1.7 4.6-5.7 6.5-5.7.7 0 2.3-.9 3.6-1.9l2.4-2-2.7-2.6c-3.2-2.9-3.4-4.4-1.3-8.5 5.3-10.3 29.5-13.6 38.7-5.3 3.5 3.2 2.8.5-1.1-3.8-4.4-5.1-11.4-9.2-18.3-10.9l-4.8-1.2V926c0-6.7 1.6-8 9.4-8 7 0 8.9-1 11.4-6 1-2.2 2.5-3.6 4-3.8 3.1-.5 1.7-2.2-1.8-2.2-3 0-4.5-1.3-3.5-3 1.2-1.9 6.3-1 12.1 2.1zm100.3 65.3 3.2 3.3-5.9 7.9c-8.1 10.7-20.8 22.6-32.2 30.1-10.6 7.1-9.8 8.2 3 3.8 14.3-4.9 28.6-16.2 37-29.3l3.4-5.3 2.8 3.3c3.3 4 3.5 6.9.7 14.4-7.5 20-24.2 35.5-36.5 34.1-2.4-.2-6.9-1.7-9.9-3.2-3-1.6-5.8-2.6-6.1-2.3-.6.7 2.1 6.4 4.1 8.8.7.8 2.5 5.1 3.9 9.4 2.5 7.4 7.9 16.9 11.1 19.6 3.1 2.6 1.5 3.2-6.2 2.5-11.8-1.1-12.8-1.9-14.2-11.2-1.7-10.6-8.3-29.9-14-40.7-4.9-9.6-10.9-16.3-20.4-23.4-9-6.6-11.2-11.5-8.5-18.9l1.2-3.4 6.6.7c9.9 1 10.7 1.5 11.6 7.1.4 2.6.3 6.9-.3 9.5-.9 4.4-.8 4.8 1 4.8 9.1 0 42.8-13.2 55.7-21.9 2.5-1.6 4.7-3 5.1-3 .3-.1 2 1.4 3.8 3.3zM478.4 1041c1.4.5 2.6 1.3 2.6 1.8 0 .4-3.7 1.9-8.2 3.2-14.5 4.2-29 12.1-41.2 22.5-7.6 6.4-4 5.6-38.1 8.1-30.1 2.1-87.3 8.7-115.5 13.4-15.9 2.6-31 5.2-34.5 6-16.3 3.6-51.7 10.2-52.2 9.7-1.3-1.3 5.9-13.7 10-17.3 4.4-3.9 13-8.4 16-8.4 2.1 0 2.1.1 0 4.5-.9 1.9-1.4 3.8-1 4.1.3.3 15.8-1.7 34.4-4.5 45-6.7 89.7-11.8 132.3-15.1 42-3.2 37.6-2.5 41.9-6.2 9.2-7.9 26.5-16.6 41.1-20.8 7.7-2.2 9-2.3 12.4-1zm105.6 28c78.9 2.3 173.6 6.9 195.3 9.6l4.8.6-12 4.8c-17.5 7.1-19 7.1-31.8 1.9-2.8-1.1-4.2-1.1-9.5.3-3.4.9-6.5 1.5-7 1.2-.4-.3-.8-1.7-.8-3.1 0-2.4-.2-2.5-3.7-1.8-2.1.3-7.7 2-12.5 3.7l-8.8 3-24.7-2.6c-22.5-2.4-36.9-4.1-56.8-6.6-24.2-3.2-81.9-6.2-108.5-5.8l-15.5.2-.3-2.8c-.2-1.6.1-3.2.6-3.5 1.4-.8 46.8-.4 91.2.9zm228 12c21.5 1.8 23.5 2.5 13.8 4.9-7.3 1.7-19 2.4-21.9 1.3-1.5-.6-3.6-2.4-4.9-4.1-2.5-3.7-3.6-3.5 13-2.1zm-233 6c21.2 1.2 67.6 5.3 89 7.9 14 1.6 14.4 1.7 12 3.3-8 5.2-8 5.2-32.7 3.5-48.5-3.6-68.5-4.2-129.8-4.2-63 0-86.8.8-134 4.5-34.2 2.7-80.7 7.7-100.5 10.9-3.6.6-13.2 2-21.5 3.1-8.2 1.2-22.8 3.5-32.4 5.1-16.4 2.9-17.4 2.9-19.2 1.3-2.8-2.5-2.3-4.1 1.4-4.7 1.7-.3 8.6-1.7 15.2-3.2 25.3-5.5 49.8-10.1 69.5-13.1 58.3-8.9 99.6-13.1 152-15.4 24.4-1.1 106.4-.5 131 1zm170 15.8c0 .5-.9 1.7-2 2.7-2.6 2.3-2.5 3.5.1 3.5 1.2 0 3.2 1.1 4.5 2.5 2.9 3.1 4.6 3.1 16.4.1 13.9-3.5 34.8-6 44.9-5.3 15.4 1.1 12.5 2.8-10.9 6.2-10.1 1.5-15.9 3.7-16.8 6.3-.7 2.2 4.5 1.7 33.4-2.9 16.5-2.6 28.4-2.6 31.5.1 2.1 1.7 2.2 2.1.9 3-3 2.1-8.9 2.9-26 3.9-15.5.8-18.9 1.3-29.9 4.5-6.9 2-13.6 3.6-15 3.6h-2.5l2.2-1.6c4.2-2.9 2.7-3.7-5.8-3-4.4.4-8.4.4-9 .1-.6-.4.7-2 3.1-3.7 2.9-2.1 3.8-3.3 3.1-4-1.1-1.1-5.4-.6-32.2 3.7-4.7.8-10.5 1.6-13 1.9l-4.5.5 5.5-2.5c3-1.4 5.8-3.1 6.2-3.7 1.7-2.6.8-3.7-3.2-3.7-2.2 0-4-.5-4-1 0-1.7-4-1.1-13.3 2.1-7.9 2.7-9.7 3-15.8 2.4l-6.8-.7 9-6.5c12.6-9 18.6-10.9 13.9-4.4-2.7 3.9-1.8 3.9 8.1.5 12.2-4.2 27.9-6.8 27.9-4.6zM475 1123c62.9 2 116.1 7.8 180 19.4 32.3 5.9 83.7 17.8 95.5 22.1 5.2 1.9 1.9 1.9-3.7.1-5-1.7-10.4-2.9-40.8-9.1-64.2-13-127.1-20.8-192.2-23.6-34.3-1.5-96.1-.5-130 2-35.8 2.7-57.8 5.3-57.8 6.7 0 1.7 25.9 26.6 40.1 38.4 15.5 12.9 34.4 26.7 52.2 37.9 7.4 4.7 14.4 9.1 15.4 9.8 3 2-3.2 0-11.2-3.5-27.7-12.2-57-30.5-84-52.6-5.3-4.4-26.6-24-32.6-30.1-.6-.5-52.8 6.5-59.6 8-3.5.8-2.7-.9 1-2.3 21.1-8.1 47.8-15.3 63.7-17.1 17.9-2.2 61.4-5.3 83.5-6 34.3-1.2 47-1.2 80.5-.1zm434.5 54c-.4.6-2.4 1.8-4.6 2.7-8.7 3.4-1.9 4.6 7.7 1.3 3.3-1.2 10-2.3 15.4-2.7 8.8-.6 9.4-.5 8.1 1-1.2 1.5-11.4 5-29.1 10.1-3.1.9-6.5 2.2-7.5 3-1.9 1.4-1.9 1.5.5 2.5 1.7.8 5 .9 10.3.3 4.3-.4 8-.5 8.3 0 .9 1.4-4.5 2.8-11 2.8-5.9 0-6.8.3-13.2 4.7-7.1 4.8-15.3 7-16.9 4.4-1.3-2.1 4.1-7.5 12.6-12.5 4.5-2.7 7.7-5.2 7-5.4-1.9-.6-8.9 2.3-19.8 8.4-12.4 6.8-15.3 7.2-9.6 1.2l2.7-2.8h-2.5c-1.3 0-9.1 2.9-17.4 6.5-14.8 6.4-24 9.1-25.1 7.4-.9-1.6.4-2.6 7-5.4 3.6-1.5 6.7-3.4 7-4.1.8-2.1-.7-1.8-10.2 2.2-10.7 4.5-21.3 8-26.9 8.9-5.4.9-5.9-1.2-1-4.8 4.7-3.6 34.1-18.1 42-20.6 8.8-2.9 10.5-2.2 3.7 1.5-7.4 3.9-7.3 6 0 5.6 9-.4 15.7-2.1 31-7.9 18.3-6.9 33-10.7 31.5-8.3zm-195.4 37.6c1.9 2-6.9 6.3-25.6 12.6-20.3 6.9-28.6 10.8-30.5 14.3-1.7 3.1-1.2 3.6 4.7 4.6 5.2.8 14.7-.2 23.3-2.6 7.7-2.1 8.7-1.9 9.3 1.3.8 3.7 4.2 5.2 12 5.2 6.8 0 21.4-2.3 29.2-4.6 14-4.1 22.9-6.4 24.6-6.4 1.6 0 1.7.4.9 2.6-.6 1.4-1 3.4-1 4.4 0 4 8.9 2.8 23.4-3.2 13.6-5.6 18.8-6.7 34.6-7.4 11.7-.6 14.8-.4 23.6 1.5l10.1 2.2 5.8-2.2c5.1-1.9 6.5-2 10.4-1.1 2.5.7 7 1.4 9.8 1.8 2.9.4 5.8 1.3 6.4 2 .6.8 2 1.4 3 1.4 1.1 0 1.9.4 1.9 1 0 1.7-4.1 3.2-13.4 4.6-7.5 1.2-11.3 2.5-21.3 7.4-13.4 6.6-20.2 8.6-25.7 7.6-2-.4-3.6-.9-3.6-1.1 0-.3.7-2.3 1.6-4.5 1.1-2.7 1.3-4.5.7-5.1-1.5-1.5-12.7.7-28.1 5.7-14.8 4.8-17.3 5.2-19.2 2.9-1.6-1.9-4.3-1.9-12 .1-5.6 1.4-6.8 1.4-14.4-.1-8-1.6-8.7-1.6-20.2.5-6.5 1.2-12.2 2.3-12.5 2.6-.3.2-4.4.8-9 1.3-9.8 1.1-16.9.2-20.7-2.6-2.2-1.6-3.3-1.7-6-1-2.5.8-4.8.6-9.5-.8-3.4-.9-9.9-2.1-14.5-2.5-9.7-1-14.9-3.7-15.9-8.3-1-4.8-3.4-5.1-11-1.2-8.1 4.2-19.5 5.9-34.2 5.3-7.7-.3-10.4-.8-13.5-2.6-2.9-1.7-4.2-2-5.7-1.2-2.1 1.2-2.7 1-8.1-3.3-3.5-2.8-3.9-2.9-12.5-2.4-4.8.2-12.2 1.2-16.3 2.1-6.1 1.4-9.9 1.6-19.8 1.1-8.1-.5-16.7-.3-24.8.5-6.8.8-12.7 1-13.1.6-.4-.3.4-1.8 1.8-3.1 2.2-2.2 4-2.6 21.4-4.4 24.3-2.6 27.5-3.6 57.4-17.3 15.5-7.1 24.1-9.5 24.1-6.6 0 1.9-3.3 4.8-9.2 8.2-7.6 4.3-7.5 10.6.2 10.6 1.4 0 3 .8 3.8 2 3 4.8 24.7.6 60.7-11.7 16.1-5.4 28.8-9.1 38-10.9 8.3-1.6 26.9-1.4 28.6.2z"/>
        <path d="M436 769.8c-23.9 11.1-24 11.2-24 13.3 0 2.5 9.6 16.9 11.3 16.9 2.3 0 3.4-1.5 4.1-5.2 1.1-6.1 3.6-6.7 11.7-2.7l6.9 3.3 2.2-2c1.3-1.1 5.8-5.1 10.1-8.9 4.2-3.8 7.7-7.4 7.7-8.1 0-2.1-12.7-13.5-14.9-13.3-.3 0-7.1 3-15.1 6.7z"/>
        <path d="M396.3 886.4c-7.3 1.1-13.7 2.5-14.2 3.1-1 1.1-4.1 11-4.1 13.2 0 1 2.3 1.3 9.4 1.3 10.8 0 10.4.2 23.1-12.2l8-7.8-4.5.1c-2.5.1-10.4 1.1-17.7 2.3z"/>
        <path d="M420 911.1c-14 10.4-26.4 19.9-27.5 20.9-1.9 2-1.9 2 2.5 2 2.5 0 6.8.3 9.5.6l5 .5L425 923c8.5-6.7 19.7-15.4 24.7-19.3 5.1-4 9.3-7.5 9.3-7.9 0-.7-5.4-2.4-10.6-3.3-2.5-.4-6.1 1.9-28.4 18.6z"/>
        <path d="M471 939.2c-9.3 3-10.2 3.6-48.9 31.7l-39.4 28.6 4.6.3c4 .3 5.3-.2 10.6-4 3.3-2.4 23.3-16.4 44.5-31.2s38.6-27.3 38.6-27.8c0-.4-.1-.8-.2-.7-.2 0-4.6 1.4-9.8 3.1z"/>
        <path d="M325.2 1005.1c-3.9 3.5-7 6.9-7.1 7.6-.2 2.8 2.6 2.2 12-2.3 14.5-7 16.2-9.7 6.7-11-4.6-.6-4.7-.6-11.6 5.7z"/>
        <path d="m353.7 1012.5-27.9 9.4-12.6-1.9c-7-1.1-15.1-2.4-18.1-3-7.9-1.5-8.7-1.3-11 2.4-2.1 3.3-2.1 3.6-.6 13.7 2.1 14.2 2.3 15 4.7 18.9l2.2 3.5.7-2.5c.4-1.4.7-8 .8-14.8.1-6.7.4-12.2.8-12.2 2.5 0 22 4.5 23.1 5.3.6.5 1.2 2.6 1.2 4.5 0 4.3 1.3 3.4 3.3-2.3 1.2-3.4 1.9-4.1 5.8-5.1 33.1-8.9 46.3-12.3 46.7-12 .2.2-8.7 7.5-19.7 16.2s-19.8 16-19.6 16.2c.2.2 3.5-.8 7.3-2.3 5.3-2.1 12-6.5 27.2-18.1 11.1-8.5 21.4-16.1 22.9-16.9 1.5-.7 6.5-2.3 11.2-3.5 11.9-3.1 12.2-3.6 2.7-4.3-20.1-1.6-20.7-1.5-51.1 8.8z"/>
        <path d="M1474 853.7c-12.7 1.9-23.3 7.5-33 17.3-11.8 11.9-17 24.7-17 42 0 17.4 5.2 30.2 17 42.2 8.4 8.5 16.9 13.3 29 16.4 17.3 4.4 41.6-2.1 56.8-15.1l4.2-3.7V906h-50v22h26.1l-.3 7.7-.3 7.8-5.9 2.9c-7.5 3.8-20.1 4.8-28.9 2.2-7.7-2.2-15.6-9.6-19.9-18.4-3.1-6.3-3.3-7.4-3.2-17.2 0-9.2.3-11.2 2.6-16.2 10.5-22.7 37.4-28.1 55.7-11.2 3.2 3 6 5.4 6.3 5.4.2 0 3.9-3.9 8.3-8.7l7.9-8.6-5.2-4.8c-6.5-6-19.4-12.5-28.7-14.4-6.6-1.4-15.8-1.7-21.5-.8z"/>
        <path d="M1310.7 855.6c-.4.4-.7 16.7-.7 36.1 0 28.5.3 36.9 1.6 43.1 5 24.1 22.7 38.2 47.9 38.2 23.9 0 41.3-12.9 47-34.7 1.2-4.6 1.5-13.5 1.5-44.5v-38.9l-11.7.3-11.8.3-.5 39.5-.5 39.5-2.6 4.5c-3.3 5.5-5.4 7.5-9.9 9.3-5.7 2.4-11.5 2.9-17.4 1.7-9-1.9-14.9-7.2-17.7-15.9-.8-2.3-1.4-16.9-1.8-41.1l-.6-37.5-11.1-.3c-6-.1-11.3.1-11.7.4z"/>
        <path d="M1549.8 856.2c-.3.7-.3 17.7-.1 37.8.4 40.4 1.1 46.7 6.4 55.9 8.6 15 26.3 24 44.9 22.8 23.1-1.5 38.5-13.3 44.8-34.2 1.2-4 1.6-12.6 1.9-42.6.2-20.8 0-38.4-.3-39.3-.5-1.4-2.3-1.6-12.3-1.4l-11.6.3-.5 39c-.5 38.4-.5 39.1-2.9 43.8-4 8.2-10.7 11.7-22.1 11.7-9.7 0-16.3-3.6-20.4-11l-3.1-5.5-.3-37c-.1-20.4-.4-38-.7-39.3-.5-2.1-.9-2.2-11.9-2.2-8.1 0-11.6.4-11.8 1.2z"/>
        <path d="M1669.4 856.5c-.4.8-.2 26.8.2 57.8l.9 56.2 3 .4c1.7.1 20.2 0 41.3-.4l38.2-.7V948h-59v-25h55v-22h-55v-24h58v-22h-41c-35.6 0-41.1.2-41.6 1.5z"/>
        <path d="m1772.2 912.2.3 57.3 38.3.3 38.3.2-.3-10.7-.3-10.8-25.7-.3-25.8-.2-.2-46.3-.3-46.2-12.3-.3-12.2-.3.2 57.3z"/>
        <path d="M1132.3 867.8c-2.8 6.4-12.2 27.7-20.8 47.2-8.6 19.5-17.7 40-20.1 45.4-2.5 5.6-4.1 10.3-3.6 10.8.5.5 6.5.7 13.3.6l12.4-.3 3.2-7c1.8-3.9 4.3-9 5.5-11.5l2.3-4.5h49l5 11.2 5 11.3h13.3c7.2 0 13.2-.3 13.2-.8 0-.4-11.3-26.2-25.2-57.5l-25.2-56.7h-22.1l-5.2 11.8zm24.5 41c4 8.9 7.2 16.4 7.2 16.7 0 .3-7 .5-15.6.5s-15.4-.4-15.2-.9c3.8-9.8 15.3-34 15.8-33.4.4.4 3.9 8.1 7.8 17.1z"/>
        <path d="M1220 913.5V971l38.3-.2 38.2-.3.2-9.5c0-5.2-.4-10.1-.9-10.8-.8-.9-7.3-1.2-26.4-1.2H1244v-93h-24v57.5z"/>
        <path d="M1101.7 1031.7c-.4.3-.7 26.4-.7 58v57.3h25.4c29.5 0 35.8-.9 48.2-7 18.3-9 30.4-29.2 30.4-50.9 0-28.2-19.4-51.8-46.5-56.6-8.3-1.5-55.5-2.2-56.8-.8zm57.8 23.9c7.2 2.7 15.5 11.2 18.5 18.9 3.2 8.5 3.3 20.7 0 29-3 7.6-10.3 15.5-17.3 18.6-4.7 2.1-6.7 2.3-20.2 2.4h-15l-.3-34.5c-.1-19 0-35.1.3-35.9.8-2.1 27.3-.9 34 1.5z"/>
        <path d="M1221.5 1032c-.4.6-.3 26.7.1 58l.7 57 41.1-.2 41.1-.3.3-10.8.3-10.7H1246v-25l25.8-.1c14.1-.1 26.4-.2 27.2-.3 1.2-.1 1.6-2.2 1.8-11.4l.3-11.2H1246v-24h58v-22h-40.9c-26.6 0-41.2.4-41.6 1z"/>
        <path d="M1412.5 1208c-15.8 2.9-25.7 9.8-31.4 22-2.1 4.5-2.6 7-2.6 14 0 7.3.4 9.3 2.8 14.2 5.5 11.3 13.3 15.5 37.4 20.3 12.8 2.6 17.2 3.9 19.8 5.9 4.1 3.2 5.1 7.1 3.1 12-2.3 5.5-8.6 8.1-19.6 8.1-9.9-.1-15.8-1.8-27.7-8l-8.3-4.4-1.8 2.7c-4 5.9-9.2 15-9.2 16.4 0 1.9 9.5 7.5 17.8 10.5 13.4 4.9 29.9 6.6 42.3 4.3 7.8-1.4 19.2-7.3 23.1-12 6.7-7.7 8.3-12.4 8.3-23.5 0-8.9-.3-10.6-2.7-15.1-5.9-11.2-15.7-16.2-39.1-19.9-16.9-2.6-21.7-5.3-21.7-12.4 0-7.9 5.5-12.2 16.4-12.9 9.4-.6 16.1.9 26 5.9 4.7 2.3 8.3 3.6 8.8 3.1s3.2-4.7 5.9-9.3c3.8-6.6 4.6-8.6 3.6-9.5-2.9-2.8-15.4-8.8-21.8-10.5-8.5-2.2-22.6-3.1-29.4-1.9z"/>
        <path d="M1485.7 1209.6c-.4.4-.7 26.5-.7 58.1v57.3h24v-37.9l3.8-4.5c2-2.4 4-4.5 4.4-4.5.4-.1 8.6 10.5 18.2 23.4l17.6 23.5h14c9.4 0 14-.4 14-1.1 0-.6-6-9.2-13.2-19.1-27.8-37.7-31.8-43.3-31.8-44.8 0-.8 9.9-12.3 21.9-25.5 12-13.2 21.7-24.3 21.4-24.8-.2-.4-7.1-.7-15.2-.7h-14.9l-19.2 21c-10.6 11.5-19.7 21-20.1 21-.5 0-1-9.3-1.1-20.8l-.3-20.7-11.1-.3c-6-.1-11.3.1-11.7.4z"/>
        <path d="m1593.2 1266.7.3 57.8h23v-115l-11.8-.3-11.7-.3.2 57.8z"/>
        <path d="M1106 1221v10.9l15.3.3 15.2.3.3 29.2c.3 33.2-.3 36.7-6.7 41-5.5 3.7-15.8 2.9-27.1-2.1-1.2-.5-2.5 1.5-5.7 9.1-4.8 11.2-4.9 10.8 4.4 14.3 13.1 4.9 27.1 4.9 37.8.1 7.5-3.4 12.6-8.3 16.4-15.9 5.6-11.1 5.9-15.6 5.4-73l-.3-25.2h-55v11z"/>
        <path d="M1183.7 1210.7c-.4.3-.7 26.2-.7 57.5v56.8h84.1l-.3-10.8-.3-10.7-28-.1c-15.4 0-28.6-.1-29.3-.2-1-.2-1.2-3.1-1-12.5l.3-12.2 27.3-.3 27.2-.2v-22h-55v-24h58v-22h-40.8c-22.5 0-41.2.3-41.5.7z"/>
        <path d="M1275 1221v11l17.3.2 17.2.3.3 46.2.2 46.3h24l.2-46.3.3-46.2 17.3-.3 17.2-.2v-22h-94v11z"/>
    </g>
</svg>
